<svg version="1.0" xmlns="http://www.w3.org/2000/svg" width="800.000000" height="800.000000" viewBox="0 0 800.000000 800.000000" preserveAspectRatio="xMidYMid meet">
  <metadata>
    <rdf:RDF xmlns:rdf="http://www.w3.org/1999/02/22-rdf-syntax-ns#" xmlns:rdfs="http://www.w3.org/2000/01/rdf-schema#" xmlns:dc="http://purl.org/dc/elements/1.1/">
      <rdf:Description dc:format="image/svg+xml" dc:Label="1" dc:ContentProducer="001191330110MACRLGPT8B00000" dc:ProduceID="343240458" dc:ReservedCode1="BQ2mlG8U3MI5xwzFUIhoTOjLTlbGqGxfIhwcnfy8WBM=" dc:ContentPropagator="001191330110MACRLGPT8B00000" dc:PropagateID="343240458" dc:ReservedCode2="BQ2mlG8U3MI5xwzFUIhoTOjLTlbGqGxfIhwcnfy8WBM="/>
    </rdf:RDF>
  </metadata>
  <g transform="translate(0.000000,800.000000) scale(0.100000,-0.100000)" fill="#000000" stroke="none">
    <path d="M5429 6437 c-166 -138 -245 -258 -284 -431 -6 -26 -2 -24 32 21 40 53 116 137 148 163 17 14 18 13 12 -11 -4 -15 -11 -82 -17 -150 -5 -68 -12 -143 -16 -166 -3 -30 -2 -43 7 -43 6 0 54 20 105 44 107 51 108 48 10 -63 -36 -41 -66 -79 -66 -86 0 -6 56 -38 125 -70 88 -41 125 -63 123 -73 -2 -9 -32 -30 -68 -49 l-65 -33 46 0 c25 0 70 8 100 19 76 26 243 108 232 114 -4 2 -84 26 -178 52 -93 26 -174 49 -178 52 -4 2 47 61 113 130 143 149 262 304 320 416 22 44 39 82 36 84 -2 2 -71 -47 -152 -109 -127 -97 -436 -317 -441 -314 -2 1 43 194 93 399 20 82 34 150 32 153 -3 2 -33 -20 -69 -49z"/>
    <path d="M1930 6371 c0 -5 40 -69 88 -143 49 -73 108 -167 131 -208 61 -105 144 -212 189 -244 21 -14 41 -26 44 -26 4 0 -4 19 -17 43 -27 47 -107 249 -101 254 7 7 99 -83 143 -139 24 -32 50 -58 57 -58 8 0 21 19 30 42 l17 41 26 -36 c14 -21 30 -37 34 -37 4 0 13 16 20 37 12 37 6 244 -10 328 l-8 40 -32 -67 c-17 -37 -31 -70 -31 -74 0 -21 -53 -175 -59 -172 -4 2 -43 45 -85 95 -76 91 -231 226 -318 277 -60 35 -118 58 -118 47z"/>
    <path d="M4475 5983 c-27 -2 -93 -10 -146 -18 -53 -8 -122 -15 -153 -15 -69 0 -331 -40 -481 -74 -148 -34 -383 -76 -421 -76 -43 0 -293 -47 -343 -64 -61 -22 -293 -65 -417 -77 -60 -6 -119 -17 -131 -25 -34 -22 -59 -80 -73 -169 -7 -44 -19 -96 -27 -115 -17 -39 -25 -123 -48 -480 -19 -292 -24 -1181 -7 -1300 6 -41 13 -140 17 -220 3 -79 13 -199 20 -265 8 -66 15 -160 15 -210 0 -61 8 -123 24 -190 26 -105 39 -193 56 -383 6 -62 26 -177 45 -255 18 -78 37 -164 40 -192 13 -99 17 -102 119 -81 39 8 90 17 113 19 l41 5 27 -86 c39 -126 79 -200 111 -208 17 -4 61 3 120 20 51 15 135 33 186 42 120 19 295 69 378 106 57 27 82 31 205 39 77 5 199 18 270 30 72 11 162 24 202 29 40 5 112 20 160 33 48 14 140 35 203 46 63 12 180 37 260 55 80 18 181 39 225 45 44 6 109 18 145 26 36 8 92 15 125 15 33 0 78 5 100 10 22 6 135 19 250 30 116 11 234 27 263 36 46 13 56 20 68 50 13 32 13 41 0 82 -8 26 -22 76 -31 112 -9 36 -31 94 -50 130 -18 36 -45 102 -59 146 -14 44 -42 104 -62 134 -37 56 -96 187 -163 365 -21 55 -62 157 -91 225 -44 103 -55 140 -61 210 -10 117 -34 231 -57 277 -43 83 -52 142 -54 329 0 99 3 190 6 202 4 12 -3 77 -15 144 -18 99 -22 158 -21 298 1 108 -4 219 -14 290 -10 74 -14 168 -12 262 3 169 18 141 -127 240 -49 34 -121 89 -160 122 -38 34 -90 74 -115 90 -25 16 -67 49 -95 74 -27 24 -86 66 -130 93 -85 52 -83 52 -230 42z m140 -372 c4 -181 11 -335 16 -342 9 -16 101 4 269 57 83 26 338 84 372 84 3 0 9 -75 12 -167 19 -584 25 -702 39 -758 11 -45 15 -121 15 -305 0 -261 4 -289 52 -400 32 -74 50 -161 50 -241 0 -58 22 -127 109 -344 125 -314 177 -434 213 -489 20 -32 49 -95 64 -140 14 -45 41 -109 60 -142 19 -34 41 -93 49 -130 9 -38 22 -85 30 -105 27 -71 5 -80 -270 -104 -99 -8 -216 -22 -261 -30 -44 -8 -104 -15 -132 -15 -28 0 -88 -9 -133 -20 -46 -11 -110 -22 -143 -26 -34 -4 -124 -21 -201 -40 -77 -18 -192 -42 -255 -54 -63 -11 -153 -32 -200 -45 -47 -13 -123 -28 -170 -34 -47 -6 -139 -19 -206 -30 -66 -10 -179 -22 -250 -26 -104 -6 -141 -12 -189 -32 -117 -48 -272 -93 -390 -113 -66 -12 -157 -32 -201 -45 -45 -14 -85 -25 -88 -25 -8 0 -46 76 -68 140 -17 47 -71 235 -138 480 -24 88 -50 300 -60 495 -5 88 -20 225 -34 305 -14 80 -30 199 -36 265 -6 66 -19 172 -30 235 -38 227 -61 516 -80 1010 -4 124 -13 250 -19 280 -6 30 -17 129 -25 220 -9 91 -21 217 -27 280 -15 164 6 294 54 324 12 8 56 17 97 20 115 10 304 45 417 77 56 16 166 38 245 49 220 33 422 68 538 95 131 31 426 75 501 75 31 0 81 5 110 11 30 6 99 14 154 18 55 5 107 9 116 10 15 1 18 -32 24 -328z m115 253 c30 -19 75 -55 100 -78 25 -24 63 -54 85 -67 22 -13 65 -46 95 -74 30 -28 97 -79 147 -114 51 -36 91 -66 89 -68 -2 -2 -63 -16 -137 -32 -74 -15 -200 -48 -281 -71 -82 -24 -150 -41 -152 -39 -8 9 -17 579 -9 579 5 0 33 -16 63 -36z m-2402 -1647 c2 -10 -3 -17 -12 -17 -18 0 -29 16 -21 31 9 14 29 6 33 -14z m172 -2249 c8 -13 14 -27 15 -33 0 -5 11 -12 25 -15 l25 -6 -27 -18 c-35 -23 -54 -16 -62 24 -13 69 -3 89 24 48z"/>
    <path d="M4060 5660 c-58 -10 -364 -62 -680 -114 -716 -120 -675 -112 -687 -139 -6 -14 -5 -108 2 -265 10 -197 15 -246 28 -259 18 -18 32 -16 1136 162 189 30 354 55 366 55 12 0 35 10 49 21 25 20 27 26 22 68 -3 25 -11 138 -17 251 -6 113 -15 213 -21 223 -11 22 -56 21 -198 -3z m100 -89 c0 -14 -18 -23 -30 -16 -6 4 -8 11 -5 16 8 12 35 12 35 0z m60 -95 c0 -8 -5 -18 -11 -22 -14 -8 -33 11 -25 25 10 16 36 13 36 -3z m-1446 -241 c3 -8 27 -29 53 -45 43 -28 46 -31 26 -36 -32 -9 -21 -20 39 -40 l51 -17 -28 -11 -29 -12 30 -12 c50 -21 133 -32 232 -32 52 0 93 -2 90 -5 -5 -6 -350 -69 -425 -78 -41 -5 -43 -4 -47 26 -9 58 -13 277 -6 277 4 0 10 -7 14 -15z"/>
    <path d="M4906 5161 c-10 -16 5 -41 24 -41 19 0 34 25 24 41 -3 5 -14 9 -24 9 -10 0 -21 -4 -24 -9z"/>
    <path d="M4860 5041 c-7 -15 -6 -23 6 -35 19 -20 29 -20 48 0 21 20 20 31 -3 44 -28 14 -39 13 -51 -9z"/>
    <path d="M3427 4662 c-29 -32 -39 -73 -28 -122 5 -25 13 -73 16 -107 8 -80 -7 -83 -65 -14 -47 58 -74 70 -99 47 -10 -9 -30 -16 -45 -16 -37 0 -75 -27 -107 -78 l-28 -44 -16 26 c-25 37 -52 42 -88 16 -16 -13 -49 -25 -73 -28 -41 -4 -61 -22 -48 -43 9 -16 83 -10 123 10 l38 20 20 -50 c27 -62 57 -68 72 -14 5 19 24 55 42 79 47 67 89 74 89 16 0 -41 10 -60 31 -60 16 0 19 7 19 43 0 24 3 47 7 51 4 3 30 -17 59 -45 43 -43 57 -51 79 -47 15 3 40 -1 56 -9 44 -22 110 7 139 61 12 23 19 26 69 26 69 0 90 13 136 86 19 30 41 54 50 54 19 0 35 -31 35 -70 0 -34 26 -80 45 -80 7 0 23 28 35 63 40 107 35 105 89 47 29 -30 56 -50 69 -50 30 0 59 31 71 77 13 45 37 83 55 83 7 0 24 -17 37 -37 36 -56 74 -57 134 -2 46 43 57 75 29 86 -11 4 -29 -8 -57 -37 l-40 -44 -18 25 c-37 48 -53 59 -86 59 -45 0 -79 -37 -99 -107 -14 -48 -17 -52 -35 -42 -12 6 -30 26 -41 45 -11 19 -29 39 -39 44 -25 14 -61 -4 -83 -42 l-18 -30 -16 24 c-22 32 -32 38 -69 38 -38 0 -63 -22 -93 -79 -22 -44 -45 -61 -84 -61 -24 0 -26 3 -26 43 0 54 -18 80 -55 80 -52 0 -70 -58 -41 -128 14 -34 14 -35 -20 -65 -19 -16 -39 -30 -44 -30 -20 0 -40 48 -39 96 1 27 -4 69 -11 94 -18 65 -16 87 10 108 15 12 21 25 17 35 -8 22 -40 22 -60 -1z m190 -194 c-3 -7 -5 -2 -5 12 0 14 2 19 5 13 2 -7 2 -19 0 -25z"/>
    <path d="M4885 4100 c-14 -15 -16 -23 -7 -32 17 -17 62 6 62 32 0 26 -31 26 -55 0z"/>
    <path d="M4964 4095 c-16 -25 -16 -27 10 -53 20 -22 23 -31 14 -40 -9 -9 -9 -15 0 -24 17 -17 64 20 76 60 20 69 -62 115 -100 57z"/>
    <path d="M4734 4076 c-9 -23 3 -34 31 -28 34 6 32 -12 -5 -38 -47 -34 -39 -50 23 -50 57 0 72 6 58 24 -5 6 -11 32 -13 56 l-3 45 -43 3 c-30 2 -44 -1 -48 -12z"/>
    <path d="M4880 4006 c0 -21 17 -29 46 -22 38 10 30 36 -11 36 -24 0 -35 -5 -35 -14z"/>
    <path d="M3745 3909 c-129 -13 -245 -36 -355 -71 -52 -17 -140 -41 -195 -53 -103 -24 -215 -67 -215 -83 0 -5 6 -15 14 -21 11 -9 26 -7 67 9 29 12 100 32 156 46 56 13 137 35 179 50 142 47 265 67 444 69 139 3 165 5 168 18 2 9 -5 20 -15 25 -29 15 -151 20 -248 11z"/>
    <path d="M4970 3720 c-26 -26 -25 -46 3 -74 18 -18 22 -28 14 -41 -13 -25 5 -40 32 -26 50 27 68 118 29 145 -30 21 -54 20 -78 -4z m50 -42 c0 -16 -3 -19 -11 -11 -6 6 -8 16 -5 22 11 17 16 13 16 -11z"/>
    <path d="M4728 3709 c-21 -12 -24 -35 -5 -42 10 -3 10 -9 0 -26 -19 -31 -16 -49 11 -67 22 -13 29 -14 53 -2 30 14 43 52 24 71 -6 6 -11 21 -11 34 0 16 -8 27 -26 33 -30 12 -25 12 -46 -1z m42 -99 c0 -5 -2 -10 -4 -10 -3 0 -8 5 -11 10 -3 6 -1 10 4 10 6 0 11 -4 11 -10z"/>
    <path d="M4854 3685 c-18 -45 -18 -80 2 -99 19 -20 68 -21 84 -2 18 22 8 60 -18 71 -19 8 -22 15 -18 38 5 22 2 27 -15 27 -13 0 -25 -11 -35 -35z m50 -71 c3 -8 2 -12 -4 -9 -6 3 -10 10 -10 16 0 14 7 11 14 -7z"/>
    <path d="M3944 3579 c-125 -11 -314 -44 -447 -78 -62 -16 -150 -36 -197 -46 -153 -30 -270 -73 -270 -101 0 -25 24 -25 91 0 36 13 119 36 185 50 65 14 175 39 244 55 181 44 393 72 526 70 116 -1 134 2 134 26 0 26 -124 37 -266 24z"/>
    <path d="M5124 3325 c-4 -8 -4 -24 -1 -35 3 -11 1 -20 -4 -20 -5 0 -9 14 -9 30 0 23 -4 30 -20 30 -16 0 -20 -7 -20 -30 0 -35 -25 -42 -35 -10 -11 35 -25 21 -25 -25 0 -46 3 -49 48 -45 14 1 22 -4 22 -15 0 -11 7 -15 23 -13 18 2 21 8 19 33 -3 24 -1 28 9 18 14 -14 57 -17 75 -5 15 9 11 67 -6 87 -16 20 -69 20 -76 0z m73 -51 c-3 -3 -12 -4 -19 -1 -8 3 -5 6 6 6 11 1 17 -2 13 -5z"/>
    <path d="M4912 3279 c-23 -20 -25 -46 -4 -42 6 2 14 -18 18 -42 7 -50 13 -58 34 -45 11 7 12 22 4 76 -5 37 -14 69 -19 71 -6 2 -21 -6 -33 -18z"/>
    <path d="M3985 3179 c-104 -12 -407 -74 -510 -104 -49 -14 -126 -33 -170 -41 -125 -23 -205 -52 -205 -74 0 -26 19 -29 65 -13 22 8 76 21 120 29 44 7 127 27 185 44 235 66 649 132 734 116 18 -4 41 -4 50 0 24 9 20 41 -6 48 -31 8 -177 5 -263 -5z"/>
    <path d="M5219 2913 c-11 -13 -11 -17 -1 -20 6 -3 12 -21 12 -41 0 -47 11 -65 34 -56 15 6 17 15 11 63 -4 31 -9 59 -12 64 -7 12 -30 8 -44 -10z"/>
    <path d="M5127 2900 c-32 -25 -35 -40 -8 -40 16 0 20 -8 23 -37 3 -37 14 -49 34 -35 13 9 3 124 -12 129 -6 2 -23 -6 -37 -17z"/>
    <path d="M4977 2892 c-10 -10 -17 -24 -17 -32 0 -7 -9 -1 -21 14 -34 43 -111 28 -93 -18 7 -19 16 -20 31 -5 13 13 36 2 27 -12 -3 -6 -17 -14 -30 -19 -51 -20 -17 -67 38 -52 30 8 33 12 30 40 -2 18 1 32 7 32 6 0 11 -9 11 -19 0 -52 86 -72 116 -26 18 27 12 76 -13 100 -20 21 -66 19 -86 -3z m59 -37 c9 -23 -3 -45 -21 -39 -20 8 -20 54 0 54 9 0 18 -7 21 -15z"/>
    <path d="M4070 2774 c-109 -7 -296 -34 -373 -55 -39 -11 -137 -35 -216 -54 -167 -41 -311 -100 -311 -128 0 -31 23 -29 104 8 42 20 132 49 199 64 67 16 165 40 217 55 129 35 322 56 516 56 142 0 163 2 168 17 4 9 3 20 -2 25 -10 10 -205 17 -302 12z"/>
    <path d="M2800 2383 c0 -88 97 -477 151 -604 37 -87 54 -109 85 -109 12 0 105 20 206 44 211 51 354 77 593 106 197 25 333 45 339 51 2 2 -91 4 -207 5 -180 0 -228 3 -317 23 -134 28 -311 87 -420 139 l-85 41 82 -2 c87 -2 93 3 28 23 -138 44 -321 156 -404 246 -37 41 -51 50 -51 37z"/>
    <path d="M4721 5537 c0 -105 2 -116 20 -120 21 -6 292 38 314 50 7 5 -32 9 -88 9 -56 1 -113 7 -127 12 -22 9 -22 11 -5 12 14 1 10 5 -15 15 -19 7 -29 14 -22 14 17 1 15 28 -3 34 -8 4 -28 25 -45 48 l-30 42 1 -116z"/>
    <path d="M1800 5792 c0 -13 90 -77 164 -118 59 -32 80 -38 145 -41 95 -5 114 5 85 44 -41 54 -63 61 -366 117 -16 3 -28 2 -28 -2z"/>
  </g>
</svg>